<svg width="25" height="24" viewBox="0 0 25 24" fill="none" xmlns="http://www.w3.org/2000/svg">
<path d="M24.8331 12C24.8331 5.37242 19.4607 0 12.8331 0C6.20549 0 0.833069 5.37242 0.833069 12C0.833069 17.628 4.70749 22.3497 9.93421 23.6468V15.667H7.45971V12H9.93421V10.42C9.93421 6.33525 11.7825 4.44212 15.7923 4.44212C16.5528 4.44212 17.8646 4.59159 18.4012 4.74059V8.06475C18.1178 8.03505 17.626 8.01996 17.0149 8.01996C15.0473 8.01996 14.2867 8.76542 14.2867 10.7033V12H18.2064L17.5331 15.667H14.2867V23.9123C20.2287 23.1947 24.8331 18.1353 24.8331 12Z" fill="#D4D4D4"/>
</svg>
