<svg width="30" height="24" viewBox="0 0 30 24" fill="none" xmlns="http://www.w3.org/2000/svg">
<path fill-rule="evenodd" clip-rule="evenodd" d="M29.833 2.83738C28.7469 3.32319 27.5768 3.64596 26.355 3.78989C27.6068 3.04021 28.5642 1.85213 29.0211 0.437805C27.8511 1.12969 26.5507 1.63734 25.1729 1.90882C24.065 0.731675 22.4915 0 20.7483 0C17.4012 0 14.6913 2.7114 14.6913 6.05642C14.6913 6.52857 14.7437 6.99038 14.8462 7.43585C9.80989 7.18066 5.34502 4.76964 2.35604 1.10134C1.81878 2.02682 1.53587 3.07794 1.53601 4.14807C1.53601 6.24832 2.60246 8.10594 4.22945 9.18933C3.23659 9.15988 2.30263 8.8829 1.48256 8.43416V8.50996C1.48256 11.4471 3.57025 13.8979 6.34439 14.4519C5.83623 14.5898 5.29973 14.6662 4.74689 14.6662C4.35543 14.6662 3.9781 14.6258 3.60298 14.5577C4.37773 16.9632 6.6143 18.7167 9.26305 18.7679C7.18625 20.3949 4.57789 21.3638 1.73442 21.3638C1.24371 21.3638 0.765561 21.3338 0.287964 21.2766C2.97596 23.0011 6.16011 24 9.58093 24C20.7255 24 26.825 14.7643 26.825 6.75647C26.825 6.49039 26.819 6.23253 26.8081 5.9719C27.9918 5.12514 29.0179 4.05648 29.8303 2.84005L29.833 2.83733L29.833 2.83738Z" fill="#D4D4D4"/>
</svg>
