<svg width="35" height="24" viewBox="0 0 35 24" fill="none" xmlns="http://www.w3.org/2000/svg">
<path fill-rule="evenodd" clip-rule="evenodd" d="M33.9397 5.17793C33.9397 5.17793 33.6066 2.82602 32.5815 1.79334C31.2824 0.435088 29.8278 0.426291 29.1629 0.347601C24.3917 -1.78814e-07 17.2259 0 17.2259 0H17.2133C17.2133 0 10.0506 -1.78814e-07 5.27686 0.347601C4.60938 0.428797 3.15671 0.434501 1.85827 1.79334C0.832522 2.82602 0.506353 5.17793 0.506353 5.17793C0.506353 5.17793 0.166962 7.93784 0.166962 10.7035V13.2896C0.166962 16.0495 0.506353 18.8151 0.506353 18.8151C0.506353 18.8151 0.839453 21.167 1.85827 22.2016C3.15671 23.5598 4.86315 23.5158 5.6251 23.6606C8.3567 23.9213 17.2284 24 17.2284 24C17.2284 24 24.4005 23.9874 29.1717 23.6461C29.8392 23.5674 31.2912 23.5592 32.5903 22.2003C33.616 21.1676 33.9485 18.8132 33.9485 18.8132C33.9485 18.8132 34.288 16.0534 34.288 13.2877V10.7016C34.281 7.94162 33.9416 5.17606 33.9416 5.17606L33.9397 5.17793ZM13.6914 16.4274V6.83783L22.9088 11.6486L13.6914 16.4274Z" fill="#D4D4D4"/>
</svg>
